<svg width="88" height="49" viewBox="0 0 88 49" fill="none" xmlns="http://www.w3.org/2000/svg">
<path d="M-7.85021e-08 46.6943L0 48.4902L1.79592 48.4902L1.79592 46.6943L-7.85021e-08 46.6943Z" fill="#0D2331"/>
<path d="M-7.85021e-08 44.8974L0 46.6934L1.79592 46.6934L1.79592 44.8974L-7.85021e-08 44.8974Z" fill="#0D2331"/>
<path d="M-7.85021e-08 43.1025L0 44.8984L1.79592 44.8984L1.79592 43.1025L-7.85021e-08 43.1025Z" fill="#0D2331"/>
<path d="M-7.85021e-08 41.3056L0 43.1016L1.79592 43.1016L1.79592 41.3056L-7.85021e-08 41.3056Z" fill="#0D2331"/>
<path d="M-7.85021e-08 39.5107L0 41.3066L1.79592 41.3066L1.79592 39.5107L-7.85021e-08 39.5107Z" fill="#0D2331"/>
<path d="M-7.85021e-08 37.7138L0 39.5098L1.79592 39.5098L1.79592 37.7138L-7.85021e-08 37.7138Z" fill="#0D2331"/>
<path d="M-7.85021e-08 35.9189L0 37.7148L1.79592 37.7148L1.79592 35.9189L-7.85021e-08 35.9189Z" fill="#0D2331"/>
<path d="M-7.85021e-08 34.1221L0 35.918L1.79592 35.918L1.79592 34.1221L-7.85021e-08 34.1221Z" fill="#0D2331"/>
<path d="M-7.85021e-08 32.3271L0 34.123L1.79592 34.123L1.79592 32.3271L-7.85021e-08 32.3271Z" fill="#0D2331"/>
<path d="M-7.85021e-08 30.5303L0 32.3262L1.79592 32.3262L1.79592 30.5303L-7.85021e-08 30.5303Z" fill="#0D2331"/>
<path d="M-7.85021e-08 28.7353L0 30.5312L1.79592 30.5312L1.79592 28.7353L-7.85021e-08 28.7353Z" fill="#0D2331"/>
<path d="M-7.85021e-08 26.9385L0 28.7344L1.79592 28.7344L1.79592 26.9385L-7.85021e-08 26.9385Z" fill="#0D2331"/>
<path d="M-7.85021e-08 25.1435L0 26.9395L1.79592 26.9395L1.79592 25.1435L-7.85021e-08 25.1435Z" fill="#0D2331"/>
<path d="M-7.85021e-08 23.3467L0 25.1426L1.79592 25.1426L1.79592 23.3467L-7.85021e-08 23.3467Z" fill="#0D2331"/>
<path d="M-7.85021e-08 21.5517L0 23.3477L1.79592 23.3477L1.79592 21.5517L-7.85021e-08 21.5517Z" fill="#0D2331"/>
<path d="M-7.85021e-08 19.7549L0 21.5508L1.79592 21.5508L1.79592 19.7549L-7.85021e-08 19.7549Z" fill="#0D2331"/>
<path d="M-7.85021e-08 17.9599L0 19.7559L1.79592 19.7559L1.79592 17.9599L-7.85021e-08 17.9599Z" fill="#0D2331"/>
<path d="M-7.85021e-08 16.1631L0 17.959L1.79592 17.959L1.79592 16.1631L-7.85021e-08 16.1631Z" fill="#0D2331"/>
<path d="M-7.85021e-08 14.3681L0 16.1641L1.79592 16.1641L1.79592 14.3681L-7.85021e-08 14.3681Z" fill="#0D2331"/>
<path d="M-7.85021e-08 12.5713L0 14.3672L1.79592 14.3672L1.79592 12.5713L-7.85021e-08 12.5713Z" fill="#0D2331"/>
<path d="M-7.85021e-08 10.7763L0 12.5723L1.79592 12.5723L1.79592 10.7763L-7.85021e-08 10.7763Z" fill="#0D2331"/>
<path d="M-7.85021e-08 8.97947L0 10.7754L1.79592 10.7754L1.79592 8.97947L-7.85021e-08 8.97947Z" fill="#0D2331"/>
<path d="M-7.85021e-08 7.18455L0 8.98047L1.79592 8.98047L1.79592 7.18455L-7.85021e-08 7.18455Z" fill="#0D2331"/>
<path d="M-7.85021e-08 5.38768L0 7.18359L1.79592 7.18359L1.79592 5.38768L-7.85021e-08 5.38768Z" fill="#0D2331"/>
<path d="M-7.85021e-08 3.59275L0 5.38867L1.79592 5.38867L1.79592 3.59275L-7.85021e-08 3.59275Z" fill="#0D2331"/>
<path d="M-7.85021e-08 1.79588L0 3.5918L1.79592 3.5918L1.79592 1.79588L-7.85021e-08 1.79588Z" fill="#0D2331"/>
<path d="M-7.85021e-08 0.000956655L0 1.79688L1.79592 1.79687L1.79592 0.000956576L-7.85021e-08 0.000956655Z" fill="#0D2331"/>
<path d="M1.7959 46.6943L1.7959 48.4902L3.59182 48.4902L3.59182 46.6943L1.7959 46.6943Z" fill="#0D2331"/>
<path d="M1.7959 43.1025L1.7959 44.8984L3.59182 44.8984L3.59182 43.1025L1.7959 43.1025Z" fill="#0D2331"/>
<path d="M1.7959 41.3056L1.7959 43.1016L3.59182 43.1016L3.59182 41.3056L1.7959 41.3056Z" fill="#0D2331"/>
<path d="M1.7959 39.5107L1.7959 41.3066L3.59182 41.3066L3.59182 39.5107L1.7959 39.5107Z" fill="#0D2331"/>
<path d="M1.7959 35.9189L1.7959 37.7148L3.59182 37.7148L3.59182 35.9189L1.7959 35.9189Z" fill="#0D2331"/>
<path d="M1.7959 34.1221L1.7959 35.918L3.59182 35.918L3.59182 34.1221L1.7959 34.1221Z" fill="#0D2331"/>
<path d="M1.7959 32.3271L1.7959 34.123L3.59182 34.123L3.59182 32.3271L1.7959 32.3271Z" fill="#0D2331"/>
<path d="M1.7959 28.7353L1.7959 30.5312L3.59182 30.5312L3.59182 28.7353L1.7959 28.7353Z" fill="#0D2331"/>
<path d="M1.7959 26.9385L1.7959 28.7344L3.59182 28.7344L3.59182 26.9385L1.7959 26.9385Z" fill="#0D2331"/>
<path d="M1.7959 25.1435L1.7959 26.9395L3.59182 26.9395L3.59182 25.1435L1.7959 25.1435Z" fill="#0D2331"/>
<path d="M1.7959 21.5517L1.7959 23.3477L3.59182 23.3477L3.59182 21.5517L1.7959 21.5517Z" fill="#0D2331"/>
<path d="M1.7959 19.7549L1.7959 21.5508L3.59182 21.5508L3.59182 19.7549L1.7959 19.7549Z" fill="#0D2331"/>
<path d="M1.7959 17.9599L1.7959 19.7559L3.59182 19.7559L3.59182 17.9599L1.7959 17.9599Z" fill="#0D2331"/>
<path d="M1.7959 14.3681L1.7959 16.1641L3.59182 16.1641L3.59182 14.3681L1.7959 14.3681Z" fill="#0D2331"/>
<path d="M1.7959 12.5713L1.7959 14.3672L3.59182 14.3672L3.59182 12.5713L1.7959 12.5713Z" fill="#0D2331"/>
<path d="M1.7959 10.7763L1.7959 12.5723L3.59182 12.5723L3.59182 10.7763L1.7959 10.7763Z" fill="#0D2331"/>
<path d="M1.7959 7.18455L1.7959 8.98047L3.59182 8.98047L3.59182 7.18455L1.7959 7.18455Z" fill="#0D2331"/>
<path d="M1.7959 5.38768L1.7959 7.18359L3.59182 7.18359L3.59182 5.38768L1.7959 5.38768Z" fill="#0D2331"/>
<path d="M1.7959 3.59275L1.7959 5.38867L3.59182 5.38867L3.59182 3.59275L1.7959 3.59275Z" fill="#0D2331"/>
<path d="M1.7959 0.000956655L1.7959 1.79688L3.59182 1.79687L3.59182 0.000956576L1.7959 0.000956655Z" fill="#0D2331"/>
<path d="M3.5918 46.6943L3.5918 48.4902L5.38772 48.4902L5.38772 46.6943L3.5918 46.6943Z" fill="#0D2331"/>
<path d="M3.5918 44.8974L3.5918 46.6934L5.38772 46.6934L5.38772 44.8974L3.5918 44.8974Z" fill="#0D2331"/>
<path d="M3.5918 43.1025L3.5918 44.8984L5.38772 44.8984L5.38772 43.1025L3.5918 43.1025Z" fill="#0D2331"/>
<path d="M3.5918 41.3056L3.5918 43.1016L5.38772 43.1016L5.38772 41.3056L3.5918 41.3056Z" fill="#0D2331"/>
<path d="M3.5918 39.5107L3.5918 41.3066L5.38772 41.3066L5.38772 39.5107L3.5918 39.5107Z" fill="#0D2331"/>
<path d="M3.5918 37.7138L3.5918 39.5098L5.38772 39.5098L5.38772 37.7138L3.5918 37.7138Z" fill="#0D2331"/>
<path d="M3.5918 35.9189L3.5918 37.7148L5.38772 37.7148L5.38772 35.9189L3.5918 35.9189Z" fill="#0D2331"/>
<path d="M3.5918 34.1221L3.5918 35.918L5.38772 35.918L5.38772 34.1221L3.5918 34.1221Z" fill="#0D2331"/>
<path d="M3.5918 32.3271L3.5918 34.123L5.38772 34.123L5.38772 32.3271L3.5918 32.3271Z" fill="#0D2331"/>
<path d="M3.5918 30.5303L3.5918 32.3262L5.38772 32.3262L5.38772 30.5303L3.5918 30.5303Z" fill="#0D2331"/>
<path d="M3.5918 28.7353L3.5918 30.5312L5.38772 30.5312L5.38772 28.7353L3.5918 28.7353Z" fill="#0D2331"/>
<path d="M3.5918 26.9385L3.5918 28.7344L5.38772 28.7344L5.38772 26.9385L3.5918 26.9385Z" fill="#0D2331"/>
<path d="M3.5918 25.1435L3.5918 26.9395L5.38772 26.9395L5.38772 25.1435L3.5918 25.1435Z" fill="#0D2331"/>
<path d="M3.5918 23.3467L3.5918 25.1426L5.38772 25.1426L5.38772 23.3467L3.5918 23.3467Z" fill="#0D2331"/>
<path d="M3.5918 21.5517L3.5918 23.3477L5.38772 23.3477L5.38772 21.5517L3.5918 21.5517Z" fill="#0D2331"/>
<path d="M3.5918 19.7549L3.5918 21.5508L5.38772 21.5508L5.38772 19.7549L3.5918 19.7549Z" fill="#0D2331"/>
<path d="M3.5918 17.9599L3.5918 19.7559L5.38772 19.7559L5.38772 17.9599L3.5918 17.9599Z" fill="#0D2331"/>
<path d="M3.5918 16.1631L3.5918 17.959L5.38772 17.959L5.38772 16.1631L3.5918 16.1631Z" fill="#0D2331"/>
<path d="M3.5918 14.3681L3.5918 16.1641L5.38772 16.1641L5.38772 14.3681L3.5918 14.3681Z" fill="#0D2331"/>
<path d="M3.5918 12.5713L3.5918 14.3672L5.38772 14.3672L5.38772 12.5713L3.5918 12.5713Z" fill="#0D2331"/>
<path d="M3.5918 10.7763L3.5918 12.5723L5.38772 12.5723L5.38772 10.7763L3.5918 10.7763Z" fill="#0D2331"/>
<path d="M3.5918 8.97947L3.5918 10.7754L5.38772 10.7754L5.38772 8.97947L3.5918 8.97947Z" fill="#0D2331"/>
<path d="M3.5918 7.18455L3.5918 8.98047L5.38772 8.98047L5.38772 7.18455L3.5918 7.18455Z" fill="#0D2331"/>
<path d="M3.5918 5.38768L3.5918 7.18359L5.38772 7.18359L5.38772 5.38768L3.5918 5.38768Z" fill="#0D2331"/>
<path d="M3.5918 3.59275L3.5918 5.38867L5.38772 5.38867L5.38772 3.59275L3.5918 3.59275Z" fill="#0D2331"/>
<path d="M3.5918 1.79588L3.5918 3.5918L5.38772 3.5918L5.38772 1.79588L3.5918 1.79588Z" fill="#0D2331"/>
<path d="M3.5918 0.000956655L3.5918 1.79688L5.38772 1.79687L5.38772 0.000956576L3.5918 0.000956655Z" fill="#0D2331"/>
<path d="M5.3877 46.6943L5.3877 48.4902L7.18361 48.4902L7.18361 46.6943L5.3877 46.6943Z" fill="#0D2331"/>
<path d="M5.3877 43.1025L5.3877 44.8984L7.18361 44.8984L7.18361 43.1025L5.3877 43.1025Z" fill="#0D2331"/>
<path d="M5.3877 39.5107L5.3877 41.3066L7.18361 41.3066L7.18361 39.5107L5.3877 39.5107Z" fill="#0D2331"/>
<path d="M5.3877 35.9189L5.3877 37.7148L7.18361 37.7148L7.18361 35.9189L5.3877 35.9189Z" fill="#0D2331"/>
<path d="M5.3877 32.3271L5.3877 34.123L7.18361 34.123L7.18361 32.3271L5.3877 32.3271Z" fill="#0D2331"/>
<path d="M5.3877 28.7353L5.3877 30.5312L7.18361 30.5312L7.18361 28.7353L5.3877 28.7353Z" fill="#0D2331"/>
<path d="M5.3877 25.1435L5.3877 26.9395L7.18361 26.9395L7.18361 25.1435L5.3877 25.1435Z" fill="#0D2331"/>
<path d="M5.3877 21.5517L5.3877 23.3477L7.18361 23.3477L7.18361 21.5517L5.3877 21.5517Z" fill="#0D2331"/>
<path d="M5.3877 17.9599L5.3877 19.7559L7.18361 19.7559L7.18361 17.9599L5.3877 17.9599Z" fill="#0D2331"/>
<path d="M5.3877 14.3681L5.3877 16.1641L7.18361 16.1641L7.18361 14.3681L5.3877 14.3681Z" fill="#0D2331"/>
<path d="M5.3877 10.7763L5.3877 12.5723L7.18361 12.5723L7.18361 10.7763L5.3877 10.7763Z" fill="#0D2331"/>
<path d="M5.3877 7.18455L5.3877 8.98047L7.18361 8.98047L7.18361 7.18455L5.3877 7.18455Z" fill="#0D2331"/>
<path d="M5.3877 3.59275L5.3877 5.38867L7.18361 5.38867L7.18361 3.59275L5.3877 3.59275Z" fill="#0D2331"/>
<path d="M5.3877 0.000956655L5.3877 1.79688L7.18361 1.79687L7.18361 0.000956576L5.3877 0.000956655Z" fill="#0D2331"/>
<path d="M7.18359 46.6943L7.18359 48.4902L8.97951 48.4902L8.97951 46.6943L7.18359 46.6943Z" fill="#0D2331"/>
<path d="M7.18359 44.8974L7.18359 46.6934L8.97951 46.6934L8.97951 44.8974L7.18359 44.8974Z" fill="#0D2331"/>
<path d="M7.18359 43.1025L7.18359 44.8984L8.97951 44.8984L8.97951 43.1025L7.18359 43.1025Z" fill="#0D2331"/>
<path d="M7.18359 41.3056L7.18359 43.1016L8.97951 43.1016L8.97951 41.3056L7.18359 41.3056Z" fill="#0D2331"/>
<path d="M7.18359 39.5107L7.18359 41.3066L8.97951 41.3066L8.97951 39.5107L7.18359 39.5107Z" fill="#0D2331"/>
<path d="M7.18359 37.7138L7.18359 39.5098L8.97951 39.5098L8.97951 37.7138L7.18359 37.7138Z" fill="#0D2331"/>
<path d="M7.18359 35.9189L7.18359 37.7148L8.97951 37.7148L8.97951 35.9189L7.18359 35.9189Z" fill="#0D2331"/>
<path d="M7.18359 34.1221L7.18359 35.918L8.97951 35.918L8.97951 34.1221L7.18359 34.1221Z" fill="#0D2331"/>
<path d="M7.18359 32.3271L7.18359 34.123L8.97951 34.123L8.97951 32.3271L7.18359 32.3271Z" fill="#0D2331"/>
<path d="M7.18359 30.5303L7.18359 32.3262L8.97951 32.3262L8.97951 30.5303L7.18359 30.5303Z" fill="#0D2331"/>
<path d="M7.18359 28.7353L7.18359 30.5312L8.97951 30.5312L8.97951 28.7353L7.18359 28.7353Z" fill="#0D2331"/>
<path d="M7.18359 26.9385L7.18359 28.7344L8.97951 28.7344L8.97951 26.9385L7.18359 26.9385Z" fill="#0D2331"/>
<path d="M7.18359 25.1435L7.18359 26.9395L8.97951 26.9395L8.97951 25.1435L7.18359 25.1435Z" fill="#0D2331"/>
<path d="M7.18359 23.3467L7.18359 25.1426L8.97951 25.1426L8.97951 23.3467L7.18359 23.3467Z" fill="#0D2331"/>
<path d="M7.18359 21.5517L7.18359 23.3477L8.97951 23.3477L8.97951 21.5517L7.18359 21.5517Z" fill="#0D2331"/>
<path d="M7.18359 19.7549L7.18359 21.5508L8.97951 21.5508L8.97951 19.7549L7.18359 19.7549Z" fill="#0D2331"/>
<path d="M7.18359 17.9599L7.18359 19.7559L8.97951 19.7559L8.97951 17.9599L7.18359 17.9599Z" fill="#0D2331"/>
<path d="M7.18359 16.1631L7.18359 17.959L8.97951 17.959L8.97951 16.1631L7.18359 16.1631Z" fill="#0D2331"/>
<path d="M7.18359 14.3681L7.18359 16.1641L8.97951 16.1641L8.97951 14.3681L7.18359 14.3681Z" fill="#0D2331"/>
<path d="M7.18359 12.5713L7.18359 14.3672L8.97951 14.3672L8.97951 12.5713L7.18359 12.5713Z" fill="#0D2331"/>
<path d="M7.18359 10.7763L7.18359 12.5723L8.97951 12.5723L8.97951 10.7763L7.18359 10.7763Z" fill="#0D2331"/>
<path d="M7.18359 8.97947L7.18359 10.7754L8.97951 10.7754L8.97951 8.97947L7.18359 8.97947Z" fill="#0D2331"/>
<path d="M7.18359 7.18455L7.18359 8.98047L8.97951 8.98047L8.97951 7.18455L7.18359 7.18455Z" fill="#0D2331"/>
<path d="M7.18359 5.38768L7.18359 7.18359L8.97951 7.18359L8.97951 5.38768L7.18359 5.38768Z" fill="#0D2331"/>
<path d="M7.18359 3.59275L7.18359 5.38867L8.97951 5.38867L8.97951 3.59275L7.18359 3.59275Z" fill="#0D2331"/>
<path d="M7.18359 1.79588L7.18359 3.5918L8.97951 3.5918L8.97951 1.79588L7.18359 1.79588Z" fill="#0D2331"/>
<path d="M7.18359 0.000956655L7.18359 1.79688L8.97951 1.79687L8.97951 0.000956576L7.18359 0.000956655Z" fill="#0D2331"/>
<path d="M8.97949 46.6943L8.97949 48.4902L10.7754 48.4902L10.7754 46.6943L8.97949 46.6943Z" fill="#0D2331"/>
<path d="M8.97949 43.1025L8.97949 44.8984L10.7754 44.8984L10.7754 43.1025L8.97949 43.1025Z" fill="#0D2331"/>
<path d="M8.97949 39.5107L8.97949 41.3066L10.7754 41.3066L10.7754 39.5107L8.97949 39.5107Z" fill="#0D2331"/>
<path d="M8.97949 35.9189L8.97949 37.7148L10.7754 37.7148L10.7754 35.9189L8.97949 35.9189Z" fill="#0D2331"/>
<path d="M8.97949 32.3271L8.97949 34.123L10.7754 34.123L10.7754 32.3271L8.97949 32.3271Z" fill="#0D2331"/>
<path d="M8.97949 28.7353L8.97949 30.5312L10.7754 30.5312L10.7754 28.7353L8.97949 28.7353Z" fill="#0D2331"/>
<path d="M8.97949 25.1435L8.97949 26.9395L10.7754 26.9395L10.7754 25.1435L8.97949 25.1435Z" fill="#0D2331"/>
<path d="M8.97949 21.5517L8.97949 23.3477L10.7754 23.3477L10.7754 21.5517L8.97949 21.5517Z" fill="#0D2331"/>
<path d="M8.97949 17.9599L8.97949 19.7559L10.7754 19.7559L10.7754 17.9599L8.97949 17.9599Z" fill="#0D2331"/>
<path d="M8.97949 14.3681L8.97949 16.1641L10.7754 16.1641L10.7754 14.3681L8.97949 14.3681Z" fill="#0D2331"/>
<path d="M8.97949 10.7763L8.97949 12.5723L10.7754 12.5723L10.7754 10.7763L8.97949 10.7763Z" fill="#0D2331"/>
<path d="M8.97949 7.18455L8.97949 8.98047L10.7754 8.98047L10.7754 7.18455L8.97949 7.18455Z" fill="#0D2331"/>
<path d="M8.97949 3.59275L8.97949 5.38867L10.7754 5.38867L10.7754 3.59275L8.97949 3.59275Z" fill="#0D2331"/>
<path d="M8.97949 0.000956655L8.97949 1.79688L10.7754 1.79687L10.7754 0.000956576L8.97949 0.000956655Z" fill="#0D2331"/>
<path d="M10.7754 46.6943L10.7754 48.4902L12.5713 48.4902L12.5713 46.6943L10.7754 46.6943Z" fill="#0D2331"/>
<path d="M10.7754 44.8974L10.7754 46.6934L12.5713 46.6934L12.5713 44.8974L10.7754 44.8974Z" fill="#0D2331"/>
<path d="M10.7754 43.1025L10.7754 44.8984L12.5713 44.8984L12.5713 43.1025L10.7754 43.1025Z" fill="#0D2331"/>
<path d="M10.7754 41.3056L10.7754 43.1016L12.5713 43.1016L12.5713 41.3056L10.7754 41.3056Z" fill="#0D2331"/>
<path d="M10.7754 39.5107L10.7754 41.3066L12.5713 41.3066L12.5713 39.5107L10.7754 39.5107Z" fill="#0D2331"/>
<path d="M10.7754 37.7138L10.7754 39.5098L12.5713 39.5098L12.5713 37.7138L10.7754 37.7138Z" fill="#0D2331"/>
<path d="M10.7754 35.9189L10.7754 37.7148L12.5713 37.7148L12.5713 35.9189L10.7754 35.9189Z" fill="#0D2331"/>
<path d="M10.7754 34.1221L10.7754 35.918L12.5713 35.918L12.5713 34.1221L10.7754 34.1221Z" fill="#0D2331"/>
<path d="M10.7754 32.3271L10.7754 34.123L12.5713 34.123L12.5713 32.3271L10.7754 32.3271Z" fill="#0D2331"/>
<path d="M10.7754 30.5303L10.7754 32.3262L12.5713 32.3262L12.5713 30.5303L10.7754 30.5303Z" fill="#0D2331"/>
<path d="M10.7754 28.7353L10.7754 30.5312L12.5713 30.5312L12.5713 28.7353L10.7754 28.7353Z" fill="#0D2331"/>
<path d="M10.7754 26.9385L10.7754 28.7344L12.5713 28.7344L12.5713 26.9385L10.7754 26.9385Z" fill="#0D2331"/>
<path d="M10.7754 25.1435L10.7754 26.9395L12.5713 26.9395L12.5713 25.1435L10.7754 25.1435Z" fill="#0D2331"/>
<path d="M10.7754 23.3467L10.7754 25.1426L12.5713 25.1426L12.5713 23.3467L10.7754 23.3467Z" fill="#0D2331"/>
<path d="M10.7754 21.5517L10.7754 23.3477L12.5713 23.3477L12.5713 21.5517L10.7754 21.5517Z" fill="#0D2331"/>
<path d="M10.7754 19.7549L10.7754 21.5508L12.5713 21.5508L12.5713 19.7549L10.7754 19.7549Z" fill="#0D2331"/>
<path d="M10.7754 17.9599L10.7754 19.7559L12.5713 19.7559L12.5713 17.9599L10.7754 17.9599Z" fill="#0D2331"/>
<path d="M10.7754 16.1631L10.7754 17.959L12.5713 17.959L12.5713 16.1631L10.7754 16.1631Z" fill="#0D2331"/>
<path d="M10.7754 14.3681L10.7754 16.1641L12.5713 16.1641L12.5713 14.3681L10.7754 14.3681Z" fill="#0D2331"/>
<path d="M10.7754 12.5713L10.7754 14.3672L12.5713 14.3672L12.5713 12.5713L10.7754 12.5713Z" fill="#0D2331"/>
<path d="M10.7754 10.7763L10.7754 12.5723L12.5713 12.5723L12.5713 10.7763L10.7754 10.7763Z" fill="#0D2331"/>
<path d="M10.7754 8.97947L10.7754 10.7754L12.5713 10.7754L12.5713 8.97947L10.7754 8.97947Z" fill="#0D2331"/>
<path d="M10.7754 7.18455L10.7754 8.98047L12.5713 8.98047L12.5713 7.18455L10.7754 7.18455Z" fill="#0D2331"/>
<path d="M10.7754 5.38768L10.7754 7.18359L12.5713 7.18359L12.5713 5.38768L10.7754 5.38768Z" fill="#0D2331"/>
<path d="M10.7754 3.59275L10.7754 5.38867L12.5713 5.38867L12.5713 3.59275L10.7754 3.59275Z" fill="#0D2331"/>
<path d="M10.7754 1.79588L10.7754 3.5918L12.5713 3.5918L12.5713 1.79588L10.7754 1.79588Z" fill="#0D2331"/>
<path d="M10.7754 0.000956655L10.7754 1.79688L12.5713 1.79687L12.5713 0.000956576L10.7754 0.000956655Z" fill="#0D2331"/>
<path d="M12.5713 46.6943L12.5713 48.4902L14.3672 48.4902L14.3672 46.6943L12.5713 46.6943Z" fill="#0D2331"/>
<path d="M12.5713 43.1025L12.5713 44.8984L14.3672 44.8984L14.3672 43.1025L12.5713 43.1025Z" fill="#0D2331"/>
<path d="M12.5713 39.5107L12.5713 41.3066L14.3672 41.3066L14.3672 39.5107L12.5713 39.5107Z" fill="#0D2331"/>
<path d="M12.5713 35.9189L12.5713 37.7148L14.3672 37.7148L14.3672 35.9189L12.5713 35.9189Z" fill="#0D2331"/>
<path d="M12.5713 32.3271L12.5713 34.123L14.3672 34.123L14.3672 32.3271L12.5713 32.3271Z" fill="#0D2331"/>
<path d="M12.5713 28.7353L12.5713 30.5312L14.3672 30.5312L14.3672 28.7353L12.5713 28.7353Z" fill="#0D2331"/>
<path d="M12.5713 25.1435L12.5713 26.9395L14.3672 26.9395L14.3672 25.1435L12.5713 25.1435Z" fill="#0D2331"/>
<path d="M12.5713 21.5517L12.5713 23.3477L14.3672 23.3477L14.3672 21.5517L12.5713 21.5517Z" fill="#0D2331"/>
<path d="M12.5713 17.9599L12.5713 19.7559L14.3672 19.7559L14.3672 17.9599L12.5713 17.9599Z" fill="#0D2331"/>
<path d="M12.5713 14.3681L12.5713 16.1641L14.3672 16.1641L14.3672 14.3681L12.5713 14.3681Z" fill="#0D2331"/>
<path d="M12.5713 10.7763L12.5713 12.5723L14.3672 12.5723L14.3672 10.7763L12.5713 10.7763Z" fill="#0D2331"/>
<path d="M12.5713 7.18455L12.5713 8.98047L14.3672 8.98047L14.3672 7.18455L12.5713 7.18455Z" fill="#0D2331"/>
<path d="M12.5713 3.59275L12.5713 5.38867L14.3672 5.38867L14.3672 3.59275L12.5713 3.59275Z" fill="#0D2331"/>
<path d="M12.5713 0.000956655L12.5713 1.79688L14.3672 1.79687L14.3672 0.000956576L12.5713 0.000956655Z" fill="#0D2331"/>
<path d="M14.3672 44.8974L14.3672 46.6934L16.1631 46.6934L16.1631 44.8974L14.3672 44.8974Z" fill="#0D2331"/>
<path d="M14.3672 43.1025L14.3672 44.8984L16.1631 44.8984L16.1631 43.1025L14.3672 43.1025Z" fill="#0D2331"/>
<path d="M14.3672 41.3056L14.3672 43.1016L16.1631 43.1016L16.1631 41.3056L14.3672 41.3056Z" fill="#0D2331"/>
<path d="M14.3672 37.7138L14.3672 39.5098L16.1631 39.5098L16.1631 37.7138L14.3672 37.7138Z" fill="#0D2331"/>
<path d="M14.3672 35.9189L14.3672 37.7148L16.1631 37.7148L16.1631 35.9189L14.3672 35.9189Z" fill="#0D2331"/>
<path d="M14.3672 34.1221L14.3672 35.918L16.1631 35.918L16.1631 34.1221L14.3672 34.1221Z" fill="#0D2331"/>
<path d="M14.3672 30.5303L14.3672 32.3262L16.1631 32.3262L16.1631 30.5303L14.3672 30.5303Z" fill="#0D2331"/>
<path d="M14.3672 28.7353L14.3672 30.5312L16.1631 30.5312L16.1631 28.7353L14.3672 28.7353Z" fill="#0D2331"/>
<path d="M14.3672 26.9385L14.3672 28.7344L16.1631 28.7344L16.1631 26.9385L14.3672 26.9385Z" fill="#0D2331"/>
<path d="M14.3672 23.3467L14.3672 25.1426L16.1631 25.1426L16.1631 23.3467L14.3672 23.3467Z" fill="#0D2331"/>
<path d="M14.3672 21.5517L14.3672 23.3477L16.1631 23.3477L16.1631 21.5517L14.3672 21.5517Z" fill="#0D2331"/>
<path d="M14.3672 19.7549L14.3672 21.5508L16.1631 21.5508L16.1631 19.7549L14.3672 19.7549Z" fill="#0D2331"/>
<path d="M14.3672 16.1631L14.3672 17.959L16.1631 17.959L16.1631 16.1631L14.3672 16.1631Z" fill="#0D2331"/>
<path d="M14.3672 14.3681L14.3672 16.1641L16.1631 16.1641L16.1631 14.3681L14.3672 14.3681Z" fill="#0D2331"/>
<path d="M14.3672 12.5713L14.3672 14.3672L16.1631 14.3672L16.1631 12.5713L14.3672 12.5713Z" fill="#0D2331"/>
<path d="M14.3672 8.97947L14.3672 10.7754L16.1631 10.7754L16.1631 8.97947L14.3672 8.97947Z" fill="#0D2331"/>
<path d="M14.3672 7.18455L14.3672 8.98047L16.1631 8.98047L16.1631 7.18455L14.3672 7.18455Z" fill="#0D2331"/>
<path d="M14.3672 5.38768L14.3672 7.18359L16.1631 7.18359L16.1631 5.38768L14.3672 5.38768Z" fill="#0D2331"/>
<path d="M14.3672 1.79588L14.3672 3.5918L16.1631 3.5918L16.1631 1.79588L14.3672 1.79588Z" fill="#0D2331"/>
<path d="M14.3672 0.000956655L14.3672 1.79688L16.1631 1.79687L16.1631 0.000956576L14.3672 0.000956655Z" fill="#0D2331"/>
<path d="M16.1631 46.6943L16.1631 48.4902L17.959 48.4902L17.959 46.6943L16.1631 46.6943Z" fill="#0D2331"/>
<path d="M16.1631 43.1025L16.1631 44.8984L17.959 44.8984L17.959 43.1025L16.1631 43.1025Z" fill="#0D2331"/>
<path d="M16.1631 39.5107L16.1631 41.3066L17.959 41.3066L17.959 39.5107L16.1631 39.5107Z" fill="#0D2331"/>
<path d="M16.1631 35.9189L16.1631 37.7148L17.959 37.7148L17.959 35.9189L16.1631 35.9189Z" fill="#0D2331"/>
<path d="M16.1631 32.3271L16.1631 34.123L17.959 34.123L17.959 32.3271L16.1631 32.3271Z" fill="#0D2331"/>
<path d="M16.1631 28.7353L16.1631 30.5312L17.959 30.5312L17.959 28.7353L16.1631 28.7353Z" fill="#0D2331"/>
<path d="M16.1631 25.1435L16.1631 26.9395L17.959 26.9395L17.959 25.1435L16.1631 25.1435Z" fill="#0D2331"/>
<path d="M16.1631 21.5517L16.1631 23.3477L17.959 23.3477L17.959 21.5517L16.1631 21.5517Z" fill="#0D2331"/>
<path d="M16.1631 17.9599L16.1631 19.7559L17.959 19.7559L17.959 17.9599L16.1631 17.9599Z" fill="#0D2331"/>
<path d="M16.1631 14.3681L16.1631 16.1641L17.959 16.1641L17.959 14.3681L16.1631 14.3681Z" fill="#0D2331"/>
<path d="M16.1631 10.7763L16.1631 12.5723L17.959 12.5723L17.959 10.7763L16.1631 10.7763Z" fill="#0D2331"/>
<path d="M16.1631 7.18455L16.1631 8.98047L17.959 8.98047L17.959 7.18455L16.1631 7.18455Z" fill="#0D2331"/>
<path d="M16.1631 3.59275L16.1631 5.38867L17.959 5.38867L17.959 3.59275L16.1631 3.59275Z" fill="#0D2331"/>
<path d="M16.1631 0.000956655L16.1631 1.79688L17.959 1.79687L17.959 0.000956576L16.1631 0.000956655Z" fill="#0D2331"/>
<path d="M17.959 46.6943L17.959 48.4902L19.7549 48.4902L19.7549 46.6943L17.959 46.6943Z" fill="#0D2331"/>
<path d="M17.959 44.8974L17.959 46.6934L19.7549 46.6934L19.7549 44.8974L17.959 44.8974Z" fill="#0D2331"/>
<path d="M17.959 43.1025L17.959 44.8984L19.7549 44.8984L19.7549 43.1025L17.959 43.1025Z" fill="#0D2331"/>
<path d="M17.959 41.3056L17.959 43.1016L19.7549 43.1016L19.7549 41.3056L17.959 41.3056Z" fill="#0D2331"/>
<path d="M17.959 39.5107L17.959 41.3066L19.7549 41.3066L19.7549 39.5107L17.959 39.5107Z" fill="#0D2331"/>
<path d="M17.959 37.7138L17.959 39.5098L19.7549 39.5098L19.7549 37.7138L17.959 37.7138Z" fill="#0D2331"/>
<path d="M17.959 34.1221L17.959 35.918L19.7549 35.918L19.7549 34.1221L17.959 34.1221Z" fill="#0D2331"/>
<path d="M17.959 32.3271L17.959 34.123L19.7549 34.123L19.7549 32.3271L17.959 32.3271Z" fill="#0D2331"/>
<path d="M17.959 30.5303L17.959 32.3262L19.7549 32.3262L19.7549 30.5303L17.959 30.5303Z" fill="#0D2331"/>
<path d="M17.959 28.7353L17.959 30.5312L19.7549 30.5312L19.7549 28.7353L17.959 28.7353Z" fill="#0D2331"/>
<path d="M17.959 26.9385L17.959 28.7344L19.7549 28.7344L19.7549 26.9385L17.959 26.9385Z" fill="#0D2331"/>
<path d="M17.959 25.1435L17.959 26.9395L19.7549 26.9395L19.7549 25.1435L17.959 25.1435Z" fill="#0D2331"/>
<path d="M17.959 23.3467L17.959 25.1426L19.7549 25.1426L19.7549 23.3467L17.959 23.3467Z" fill="#0D2331"/>
<path d="M17.959 19.7549L17.959 21.5508L19.7549 21.5508L19.7549 19.7549L17.959 19.7549Z" fill="#0D2331"/>
<path d="M17.959 17.9599L17.959 19.7559L19.7549 19.7559L19.7549 17.9599L17.959 17.9599Z" fill="#0D2331"/>
<path d="M17.959 16.1631L17.959 17.959L19.7549 17.959L19.7549 16.1631L17.959 16.1631Z" fill="#0D2331"/>
<path d="M17.959 14.3681L17.959 16.1641L19.7549 16.1641L19.7549 14.3681L17.959 14.3681Z" fill="#0D2331"/>
<path d="M17.959 12.5713L17.959 14.3672L19.7549 14.3672L19.7549 12.5713L17.959 12.5713Z" fill="#0D2331"/>
<path d="M17.959 10.7763L17.959 12.5723L19.7549 12.5723L19.7549 10.7763L17.959 10.7763Z" fill="#0D2331"/>
<path d="M17.959 8.97947L17.959 10.7754L19.7549 10.7754L19.7549 8.97947L17.959 8.97947Z" fill="#0D2331"/>
<path d="M17.959 5.38768L17.959 7.18359L19.7549 7.18359L19.7549 5.38768L17.959 5.38768Z" fill="#0D2331"/>
<path d="M17.959 3.59275L17.959 5.38867L19.7549 5.38867L19.7549 3.59275L17.959 3.59275Z" fill="#0D2331"/>
<path d="M17.959 1.79588L17.959 3.5918L19.7549 3.5918L19.7549 1.79588L17.959 1.79588Z" fill="#0D2331"/>
<path d="M17.959 0.000956655L17.959 1.79688L19.7549 1.79687L19.7549 0.000956576L17.959 0.000956655Z" fill="#0D2331"/>
<path d="M19.7549 46.6943L19.7549 48.4902L21.5508 48.4902L21.5508 46.6943L19.7549 46.6943Z" fill="#0D2331"/>
<path d="M19.7549 43.1025L19.7549 44.8984L21.5508 44.8984L21.5508 43.1025L19.7549 43.1025Z" fill="#0D2331"/>
<path d="M19.7549 39.5107L19.7549 41.3066L21.5508 41.3066L21.5508 39.5107L19.7549 39.5107Z" fill="#0D2331"/>
<path d="M19.7549 35.9189L19.7549 37.7148L21.5508 37.7148L21.5508 35.9189L19.7549 35.9189Z" fill="#0D2331"/>
<path d="M19.7549 32.3271L19.7549 34.123L21.5508 34.123L21.5508 32.3271L19.7549 32.3271Z" fill="#0D2331"/>
<path d="M19.7549 28.7353L19.7549 30.5312L21.5508 30.5312L21.5508 28.7353L19.7549 28.7353Z" fill="#0D2331"/>
<path d="M19.7549 25.1435L19.7549 26.9395L21.5508 26.9395L21.5508 25.1435L19.7549 25.1435Z" fill="#0D2331"/>
<path d="M19.7549 21.5517L19.7549 23.3477L21.5508 23.3477L21.5508 21.5517L19.7549 21.5517Z" fill="#0D2331"/>
<path d="M19.7549 17.9599L19.7549 19.7559L21.5508 19.7559L21.5508 17.9599L19.7549 17.9599Z" fill="#0D2331"/>
<path d="M19.7549 14.3681L19.7549 16.1641L21.5508 16.1641L21.5508 14.3681L19.7549 14.3681Z" fill="#0D2331"/>
<path d="M19.7549 10.7763L19.7549 12.5723L21.5508 12.5723L21.5508 10.7763L19.7549 10.7763Z" fill="#0D2331"/>
<path d="M19.7549 7.18455L19.7549 8.98047L21.5508 8.98047L21.5508 7.18455L19.7549 7.18455Z" fill="#0D2331"/>
<path d="M19.7549 3.59275L19.7549 5.38867L21.5508 5.38867L21.5508 3.59275L19.7549 3.59275Z" fill="#0D2331"/>
<path d="M19.7549 0.000956655L19.7549 1.79688L21.5508 1.79687L21.5508 0.000956576L19.7549 0.000956655Z" fill="#0D2331"/>
<path d="M21.5508 44.8974L21.5508 46.6934L23.3467 46.6934L23.3467 44.8974L21.5508 44.8974Z" fill="#0D2331"/>
<path d="M21.5508 43.1025L21.5508 44.8984L23.3467 44.8984L23.3467 43.1025L21.5508 43.1025Z" fill="#0D2331"/>
<path d="M21.5508 41.3056L21.5508 43.1016L23.3467 43.1016L23.3467 41.3056L21.5508 41.3056Z" fill="#0D2331"/>
<path d="M21.5508 37.7138L21.5508 39.5098L23.3467 39.5098L23.3467 37.7138L21.5508 37.7138Z" fill="#0D2331"/>
<path d="M21.5508 35.9189L21.5508 37.7148L23.3467 37.7148L23.3467 35.9189L21.5508 35.9189Z" fill="#0D2331"/>
<path d="M21.5508 34.1221L21.5508 35.918L23.3467 35.918L23.3467 34.1221L21.5508 34.1221Z" fill="#0D2331"/>
<path d="M21.5508 30.5303L21.5508 32.3262L23.3467 32.3262L23.3467 30.5303L21.5508 30.5303Z" fill="#0D2331"/>
<path d="M21.5508 28.7353L21.5508 30.5312L23.3467 30.5312L23.3467 28.7353L21.5508 28.7353Z" fill="#0D2331"/>
<path d="M21.5508 26.9385L21.5508 28.7344L23.3467 28.7344L23.3467 26.9385L21.5508 26.9385Z" fill="#0D2331"/>
<path d="M21.5508 23.3467L21.5508 25.1426L23.3467 25.1426L23.3467 23.3467L21.5508 23.3467Z" fill="#0D2331"/>
<path d="M21.5508 21.5517L21.5508 23.3477L23.3467 23.3477L23.3467 21.5517L21.5508 21.5517Z" fill="#0D2331"/>
<path d="M21.5508 19.7549L21.5508 21.5508L23.3467 21.5508L23.3467 19.7549L21.5508 19.7549Z" fill="#0D2331"/>
<path d="M21.5508 16.1631L21.5508 17.959L23.3467 17.959L23.3467 16.1631L21.5508 16.1631Z" fill="#0D2331"/>
<path d="M21.5508 14.3681L21.5508 16.1641L23.3467 16.1641L23.3467 14.3681L21.5508 14.3681Z" fill="#0D2331"/>
<path d="M21.5508 12.5713L21.5508 14.3672L23.3467 14.3672L23.3467 12.5713L21.5508 12.5713Z" fill="#0D2331"/>
<path d="M21.5508 8.97947L21.5508 10.7754L23.3467 10.7754L23.3467 8.97947L21.5508 8.97947Z" fill="#0D2331"/>
<path d="M21.5508 7.18455L21.5508 8.98047L23.3467 8.98047L23.3467 7.18455L21.5508 7.18455Z" fill="#0D2331"/>
<path d="M21.5508 5.38768L21.5508 7.18359L23.3467 7.18359L23.3467 5.38768L21.5508 5.38768Z" fill="#0D2331"/>
<path d="M21.5508 1.79588L21.5508 3.5918L23.3467 3.5918L23.3467 1.79588L21.5508 1.79588Z" fill="#0D2331"/>
<path d="M21.5508 0.000956655L21.5508 1.79688L23.3467 1.79687L23.3467 0.000956576L21.5508 0.000956655Z" fill="#0D2331"/>
<path d="M23.3467 46.6943L23.3467 48.4902L25.1426 48.4902L25.1426 46.6943L23.3467 46.6943Z" fill="#0D2331"/>
<path d="M23.3467 43.1025L23.3467 44.8984L25.1426 44.8984L25.1426 43.1025L23.3467 43.1025Z" fill="#0D2331"/>
<path d="M23.3467 39.5107L23.3467 41.3066L25.1426 41.3066L25.1426 39.5107L23.3467 39.5107Z" fill="#0D2331"/>
<path d="M23.3467 35.9189L23.3467 37.7148L25.1426 37.7148L25.1426 35.9189L23.3467 35.9189Z" fill="#0D2331"/>
<path d="M23.3467 32.3271L23.3467 34.123L25.1426 34.123L25.1426 32.3271L23.3467 32.3271Z" fill="#0D2331"/>
<path d="M23.3467 28.7353L23.3467 30.5312L25.1426 30.5312L25.1426 28.7353L23.3467 28.7353Z" fill="#0D2331"/>
<path d="M23.3467 25.1435L23.3467 26.9395L25.1426 26.9395L25.1426 25.1435L23.3467 25.1435Z" fill="#0D2331"/>
<path d="M23.3467 21.5517L23.3467 23.3477L25.1426 23.3477L25.1426 21.5517L23.3467 21.5517Z" fill="#0D2331"/>
<path d="M23.3467 17.9599L23.3467 19.7559L25.1426 19.7559L25.1426 17.9599L23.3467 17.9599Z" fill="#0D2331"/>
<path d="M23.3467 14.3681L23.3467 16.1641L25.1426 16.1641L25.1426 14.3681L23.3467 14.3681Z" fill="#0D2331"/>
<path d="M23.3467 10.7763L23.3467 12.5723L25.1426 12.5723L25.1426 10.7763L23.3467 10.7763Z" fill="#0D2331"/>
<path d="M23.3467 7.18455L23.3467 8.98047L25.1426 8.98047L25.1426 7.18455L23.3467 7.18455Z" fill="#0D2331"/>
<path d="M23.3467 3.59275L23.3467 5.38867L25.1426 5.38867L25.1426 3.59275L23.3467 3.59275Z" fill="#0D2331"/>
<path d="M23.3467 0.000956655L23.3467 1.79688L25.1426 1.79687L25.1426 0.000956576L23.3467 0.000956655Z" fill="#0D2331"/>
<path d="M25.1426 46.6943L25.1426 48.4902L26.9385 48.4902L26.9385 46.6943L25.1426 46.6943Z" fill="#0D2331"/>
<path d="M25.1426 44.8974L25.1426 46.6934L26.9385 46.6934L26.9385 44.8974L25.1426 44.8974Z" fill="#0D2331"/>
<path d="M25.1426 41.3056L25.1426 43.1016L26.9385 43.1016L26.9385 41.3056L25.1426 41.3056Z" fill="#0D2331"/>
<path d="M25.1426 39.5107L25.1426 41.3066L26.9385 41.3066L26.9385 39.5107L25.1426 39.5107Z" fill="#0D2331"/>
<path d="M25.1426 37.7138L25.1426 39.5098L26.9385 39.5098L26.9385 37.7138L25.1426 37.7138Z" fill="#0D2331"/>
<path d="M25.1426 34.1221L25.1426 35.918L26.9385 35.918L26.9385 34.1221L25.1426 34.1221Z" fill="#0D2331"/>
<path d="M25.1426 32.3271L25.1426 34.123L26.9385 34.123L26.9385 32.3271L25.1426 32.3271Z" fill="#0D2331"/>
<path d="M25.1426 30.5303L25.1426 32.3262L26.9385 32.3262L26.9385 30.5303L25.1426 30.5303Z" fill="#0D2331"/>
<path d="M25.1426 26.9385L25.1426 28.7344L26.9385 28.7344L26.9385 26.9385L25.1426 26.9385Z" fill="#0D2331"/>
<path d="M25.1426 25.1435L25.1426 26.9395L26.9385 26.9395L26.9385 25.1435L25.1426 25.1435Z" fill="#0D2331"/>
<path d="M25.1426 23.3467L25.1426 25.1426L26.9385 25.1426L26.9385 23.3467L25.1426 23.3467Z" fill="#0D2331"/>
<path d="M25.1426 19.7549L25.1426 21.5508L26.9385 21.5508L26.9385 19.7549L25.1426 19.7549Z" fill="#0D2331"/>
<path d="M25.1426 17.9599L25.1426 19.7559L26.9385 19.7559L26.9385 17.9599L25.1426 17.9599Z" fill="#0D2331"/>
<path d="M25.1426 16.1631L25.1426 17.959L26.9385 17.959L26.9385 16.1631L25.1426 16.1631Z" fill="#0D2331"/>
<path d="M25.1426 12.5713L25.1426 14.3672L26.9385 14.3672L26.9385 12.5713L25.1426 12.5713Z" fill="#0D2331"/>
<path d="M25.1426 10.7763L25.1426 12.5723L26.9385 12.5723L26.9385 10.7763L25.1426 10.7763Z" fill="#0D2331"/>
<path d="M25.1426 8.97947L25.1426 10.7754L26.9385 10.7754L26.9385 8.97947L25.1426 8.97947Z" fill="#0D2331"/>
<path d="M25.1426 5.38768L25.1426 7.18359L26.9385 7.18359L26.9385 5.38768L25.1426 5.38768Z" fill="#0D2331"/>
<path d="M25.1426 3.59275L25.1426 5.38867L26.9385 5.38867L26.9385 3.59275L25.1426 3.59275Z" fill="#0D2331"/>
<path d="M25.1426 1.79588L25.1426 3.5918L26.9385 3.5918L26.9385 1.79588L25.1426 1.79588Z" fill="#0D2331"/>
<path d="M26.9385 46.6943L26.9385 48.4902L28.7344 48.4902L28.7344 46.6943L26.9385 46.6943Z" fill="#0D2331"/>
<path d="M26.9385 43.1025L26.9385 44.8984L28.7344 44.8984L28.7344 43.1025L26.9385 43.1025Z" fill="#0D2331"/>
<path d="M26.9385 39.5107L26.9385 41.3066L28.7344 41.3066L28.7344 39.5107L26.9385 39.5107Z" fill="#0D2331"/>
<path d="M26.9385 35.9189L26.9385 37.7148L28.7344 37.7148L28.7344 35.9189L26.9385 35.9189Z" fill="#0D2331"/>
<path d="M26.9385 32.3271L26.9385 34.123L28.7344 34.123L28.7344 32.3271L26.9385 32.3271Z" fill="#0D2331"/>
<path d="M26.9385 28.7353L26.9385 30.5312L28.7344 30.5312L28.7344 28.7353L26.9385 28.7353Z" fill="#0D2331"/>
<path d="M26.9385 25.1435L26.9385 26.9395L28.7344 26.9395L28.7344 25.1435L26.9385 25.1435Z" fill="#0D2331"/>
<path d="M26.9385 21.5517L26.9385 23.3477L28.7344 23.3477L28.7344 21.5517L26.9385 21.5517Z" fill="#0D2331"/>
<path d="M26.9385 17.9599L26.9385 19.7559L28.7344 19.7559L28.7344 17.9599L26.9385 17.9599Z" fill="#0D2331"/>
<path d="M26.9385 14.3681L26.9385 16.1641L28.7344 16.1641L28.7344 14.3681L26.9385 14.3681Z" fill="#0D2331"/>
<path d="M26.9385 10.7763L26.9385 12.5723L28.7344 12.5723L28.7344 10.7763L26.9385 10.7763Z" fill="#0D2331"/>
<path d="M26.9385 7.18455L26.9385 8.98047L28.7344 8.98047L28.7344 7.18455L26.9385 7.18455Z" fill="#0D2331"/>
<path d="M26.9385 3.59275L26.9385 5.38867L28.7344 5.38867L28.7344 3.59275L26.9385 3.59275Z" fill="#0D2331"/>
<path d="M26.9385 0.000956655L26.9385 1.79688L28.7344 1.79687L28.7344 0.000956576L26.9385 0.000956655Z" fill="#0D2331"/>
<path d="M28.7344 44.8974L28.7344 46.6934L30.5303 46.6934L30.5303 44.8974L28.7344 44.8974Z" fill="#0D2331"/>
<path d="M28.7344 41.3056L28.7344 43.1016L30.5303 43.1016L30.5303 41.3056L28.7344 41.3056Z" fill="#0D2331"/>
<path d="M28.7344 37.7138L28.7344 39.5098L30.5303 39.5098L30.5303 37.7138L28.7344 37.7138Z" fill="#0D2331"/>
<path d="M28.7344 34.1221L28.7344 35.918L30.5303 35.918L30.5303 34.1221L28.7344 34.1221Z" fill="#0D2331"/>
<path d="M28.7344 30.5303L28.7344 32.3262L30.5303 32.3262L30.5303 30.5303L28.7344 30.5303Z" fill="#0D2331"/>
<path d="M28.7344 26.9385L28.7344 28.7344L30.5303 28.7344L30.5303 26.9385L28.7344 26.9385Z" fill="#0D2331"/>
<path d="M28.7344 23.3467L28.7344 25.1426L30.5303 25.1426L30.5303 23.3467L28.7344 23.3467Z" fill="#0D2331"/>
<path d="M28.7344 19.7549L28.7344 21.5508L30.5303 21.5508L30.5303 19.7549L28.7344 19.7549Z" fill="#0D2331"/>
<path d="M28.7344 16.1631L28.7344 17.959L30.5303 17.959L30.5303 16.1631L28.7344 16.1631Z" fill="#0D2331"/>
<path d="M28.7344 12.5713L28.7344 14.3672L30.5303 14.3672L30.5303 12.5713L28.7344 12.5713Z" fill="#0D2331"/>
<path d="M28.7344 8.97947L28.7344 10.7754L30.5303 10.7754L30.5303 8.97947L28.7344 8.97947Z" fill="#0D2331"/>
<path d="M28.7344 5.38768L28.7344 7.18359L30.5303 7.18359L30.5303 5.38768L28.7344 5.38768Z" fill="#0D2331"/>
<path d="M28.7344 1.79588L28.7344 3.5918L30.5303 3.5918L30.5303 1.79588L28.7344 1.79588Z" fill="#0D2331"/>
<path d="M30.5303 46.6943L30.5303 48.4902L32.3262 48.4902L32.3262 46.6943L30.5303 46.6943Z" fill="#0D2331"/>
<path d="M30.5303 43.1025L30.5303 44.8984L32.3262 44.8984L32.3262 43.1025L30.5303 43.1025Z" fill="#0D2331"/>
<path d="M30.5303 39.5107L30.5303 41.3066L32.3262 41.3066L32.3262 39.5107L30.5303 39.5107Z" fill="#0D2331"/>
<path d="M30.5303 35.9189L30.5303 37.7148L32.3262 37.7148L32.3262 35.9189L30.5303 35.9189Z" fill="#0D2331"/>
<path d="M30.5303 32.3271L30.5303 34.123L32.3262 34.123L32.3262 32.3271L30.5303 32.3271Z" fill="#0D2331"/>
<path d="M30.5303 28.7353L30.5303 30.5312L32.3262 30.5312L32.3262 28.7353L30.5303 28.7353Z" fill="#0D2331"/>
<path d="M30.5303 25.1435L30.5303 26.9395L32.3262 26.9395L32.3262 25.1435L30.5303 25.1435Z" fill="#0D2331"/>
<path d="M30.5303 21.5517L30.5303 23.3477L32.3262 23.3477L32.3262 21.5517L30.5303 21.5517Z" fill="#0D2331"/>
<path d="M30.5303 17.9599L30.5303 19.7559L32.3262 19.7559L32.3262 17.9599L30.5303 17.9599Z" fill="#0D2331"/>
<path d="M30.5303 14.3681L30.5303 16.1641L32.3262 16.1641L32.3262 14.3681L30.5303 14.3681Z" fill="#0D2331"/>
<path d="M30.5303 10.7763L30.5303 12.5723L32.3262 12.5723L32.3262 10.7763L30.5303 10.7763Z" fill="#0D2331"/>
<path d="M30.5303 7.18455L30.5303 8.98047L32.3262 8.98047L32.3262 7.18455L30.5303 7.18455Z" fill="#0D2331"/>
<path d="M30.5303 3.59275L30.5303 5.38867L32.3262 5.38867L32.3262 3.59275L30.5303 3.59275Z" fill="#0D2331"/>
<path d="M30.5303 0.000956655L30.5303 1.79688L32.3262 1.79687L32.3262 0.000956576L30.5303 0.000956655Z" fill="#0D2331"/>
<path d="M32.3262 46.6943L32.3262 48.4902L34.1221 48.4902L34.1221 46.6943L32.3262 46.6943Z" fill="#0D2331"/>
<path d="M32.3262 44.8974L32.3262 46.6934L34.1221 46.6934L34.1221 44.8974L32.3262 44.8974Z" fill="#0D2331"/>
<path d="M32.3262 41.3056L32.3262 43.1016L34.1221 43.1016L34.1221 41.3056L32.3262 41.3056Z" fill="#0D2331"/>
<path d="M32.3262 37.7138L32.3262 39.5098L34.1221 39.5098L34.1221 37.7138L32.3262 37.7138Z" fill="#0D2331"/>
<path d="M32.3262 34.1221L32.3262 35.918L34.1221 35.918L34.1221 34.1221L32.3262 34.1221Z" fill="#0D2331"/>
<path d="M32.3262 32.3271L32.3262 34.123L34.1221 34.123L34.1221 32.3271L32.3262 32.3271Z" fill="#0D2331"/>
<path d="M32.3262 30.5303L32.3262 32.3262L34.1221 32.3262L34.1221 30.5303L32.3262 30.5303Z" fill="#0D2331"/>
<path d="M32.3262 26.9385L32.3262 28.7344L34.1221 28.7344L34.1221 26.9385L32.3262 26.9385Z" fill="#0D2331"/>
<path d="M32.3262 23.3467L32.3262 25.1426L34.1221 25.1426L34.1221 23.3467L32.3262 23.3467Z" fill="#0D2331"/>
<path d="M32.3262 19.7549L32.3262 21.5508L34.1221 21.5508L34.1221 19.7549L32.3262 19.7549Z" fill="#0D2331"/>
<path d="M32.3262 17.9599L32.3262 19.7559L34.1221 19.7559L34.1221 17.9599L32.3262 17.9599Z" fill="#0D2331"/>
<path d="M32.3262 16.1631L32.3262 17.959L34.1221 17.959L34.1221 16.1631L32.3262 16.1631Z" fill="#0D2331"/>
<path d="M32.3262 12.5713L32.3262 14.3672L34.1221 14.3672L34.1221 12.5713L32.3262 12.5713Z" fill="#0D2331"/>
<path d="M32.3262 8.97947L32.3262 10.7754L34.1221 10.7754L34.1221 8.97947L32.3262 8.97947Z" fill="#0D2331"/>
<path d="M32.3262 5.38768L32.3262 7.18359L34.1221 7.18359L34.1221 5.38768L32.3262 5.38768Z" fill="#0D2331"/>
<path d="M32.3262 3.59275L32.3262 5.38867L34.1221 5.38867L34.1221 3.59275L32.3262 3.59275Z" fill="#0D2331"/>
<path d="M32.3262 1.79588L32.3262 3.5918L34.1221 3.5918L34.1221 1.79588L32.3262 1.79588Z" fill="#0D2331"/>
<path d="M34.1221 46.6943L34.1221 48.4902L35.918 48.4902L35.918 46.6943L34.1221 46.6943Z" fill="#0D2331"/>
<path d="M34.1221 43.1025L34.1221 44.8984L35.918 44.8984L35.918 43.1025L34.1221 43.1025Z" fill="#0D2331"/>
<path d="M34.1221 39.5107L34.1221 41.3066L35.918 41.3066L35.918 39.5107L34.1221 39.5107Z" fill="#0D2331"/>
<path d="M34.1221 35.9189L34.1221 37.7148L35.918 37.7148L35.918 35.9189L34.1221 35.9189Z" fill="#0D2331"/>
<path d="M34.1221 32.3271L34.1221 34.123L35.918 34.123L35.918 32.3271L34.1221 32.3271Z" fill="#0D2331"/>
<path d="M34.1221 28.7353L34.1221 30.5312L35.918 30.5312L35.918 28.7353L34.1221 28.7353Z" fill="#0D2331"/>
<path d="M34.1221 25.1435L34.1221 26.9395L35.918 26.9395L35.918 25.1435L34.1221 25.1435Z" fill="#0D2331"/>
<path d="M34.1221 21.5517L34.1221 23.3477L35.918 23.3477L35.918 21.5517L34.1221 21.5517Z" fill="#0D2331"/>
<path d="M34.1221 17.9599L34.1221 19.7559L35.918 19.7559L35.918 17.9599L34.1221 17.9599Z" fill="#0D2331"/>
<path d="M34.1221 14.3681L34.1221 16.1641L35.918 16.1641L35.918 14.3681L34.1221 14.3681Z" fill="#0D2331"/>
<path d="M34.1221 10.7763L34.1221 12.5723L35.918 12.5723L35.918 10.7763L34.1221 10.7763Z" fill="#0D2331"/>
<path d="M34.1221 7.18455L34.1221 8.98047L35.918 8.98047L35.918 7.18455L34.1221 7.18455Z" fill="#0D2331"/>
<path d="M34.1221 3.59275L34.1221 5.38867L35.918 5.38867L35.918 3.59275L34.1221 3.59275Z" fill="#0D2331"/>
<path d="M34.1221 0.000956655L34.1221 1.79688L35.918 1.79687L35.918 0.000956576L34.1221 0.000956655Z" fill="#0D2331"/>
<path d="M35.918 44.8974L35.918 46.6934L37.7139 46.6934L37.7139 44.8974L35.918 44.8974Z" fill="#0D2331"/>
<path d="M35.918 41.3056L35.918 43.1016L37.7139 43.1016L37.7139 41.3056L35.918 41.3056Z" fill="#0D2331"/>
<path d="M35.918 37.7138L35.918 39.5098L37.7139 39.5098L37.7139 37.7138L35.918 37.7138Z" fill="#0D2331"/>
<path d="M35.918 34.1221L35.918 35.918L37.7139 35.918L37.7139 34.1221L35.918 34.1221Z" fill="#0D2331"/>
<path d="M35.918 30.5303L35.918 32.3262L37.7139 32.3262L37.7139 30.5303L35.918 30.5303Z" fill="#0D2331"/>
<path d="M35.918 26.9385L35.918 28.7344L37.7139 28.7344L37.7139 26.9385L35.918 26.9385Z" fill="#0D2331"/>
<path d="M35.918 23.3467L35.918 25.1426L37.7139 25.1426L37.7139 23.3467L35.918 23.3467Z" fill="#0D2331"/>
<path d="M35.918 19.7549L35.918 21.5508L37.7139 21.5508L37.7139 19.7549L35.918 19.7549Z" fill="#0D2331"/>
<path d="M35.918 16.1631L35.918 17.959L37.7139 17.959L37.7139 16.1631L35.918 16.1631Z" fill="#0D2331"/>
<path d="M35.918 12.5713L35.918 14.3672L37.7139 14.3672L37.7139 12.5713L35.918 12.5713Z" fill="#0D2331"/>
<path d="M35.918 8.97947L35.918 10.7754L37.7139 10.7754L37.7139 8.97947L35.918 8.97947Z" fill="#0D2331"/>
<path d="M35.918 5.38768L35.918 7.18359L37.7139 7.18359L37.7139 5.38768L35.918 5.38768Z" fill="#0D2331"/>
<path d="M35.918 1.79588L35.918 3.5918L37.7139 3.5918L37.7139 1.79588L35.918 1.79588Z" fill="#0D2331"/>
<path d="M37.7139 46.6943L37.7139 48.4902L39.5098 48.4902L39.5098 46.6943L37.7139 46.6943Z" fill="#0D2331"/>
<path d="M37.7139 43.1025L37.7139 44.8984L39.5098 44.8984L39.5098 43.1025L37.7139 43.1025Z" fill="#0D2331"/>
<path d="M37.7139 39.5107L37.7139 41.3066L39.5098 41.3066L39.5098 39.5107L37.7139 39.5107Z" fill="#0D2331"/>
<path d="M37.7139 35.9189L37.7139 37.7148L39.5098 37.7148L39.5098 35.9189L37.7139 35.9189Z" fill="#0D2331"/>
<path d="M37.7139 32.3271L37.7139 34.123L39.5098 34.123L39.5098 32.3271L37.7139 32.3271Z" fill="#0D2331"/>
<path d="M37.7139 28.7353L37.7139 30.5312L39.5098 30.5312L39.5098 28.7353L37.7139 28.7353Z" fill="#0D2331"/>
<path d="M37.7139 25.1435L37.7139 26.9395L39.5098 26.9395L39.5098 25.1435L37.7139 25.1435Z" fill="#0D2331"/>
<path d="M37.7139 21.5517L37.7139 23.3477L39.5098 23.3477L39.5098 21.5517L37.7139 21.5517Z" fill="#0D2331"/>
<path d="M37.7139 17.9599L37.7139 19.7559L39.5098 19.7559L39.5098 17.9599L37.7139 17.9599Z" fill="#0D2331"/>
<path d="M37.7139 14.3681L37.7139 16.1641L39.5098 16.1641L39.5098 14.3681L37.7139 14.3681Z" fill="#0D2331"/>
<path d="M37.7139 10.7763L37.7139 12.5723L39.5098 12.5723L39.5098 10.7763L37.7139 10.7763Z" fill="#0D2331"/>
<path d="M37.7139 7.18455L37.7139 8.98047L39.5098 8.98047L39.5098 7.18455L37.7139 7.18455Z" fill="#0D2331"/>
<path d="M37.7139 3.59275L37.7139 5.38867L39.5098 5.38867L39.5098 3.59275L37.7139 3.59275Z" fill="#0D2331"/>
<path d="M37.7139 0.000956655L37.7139 1.79688L39.5098 1.79687L39.5098 0.000956576L37.7139 0.000956655Z" fill="#0D2331"/>
<path d="M39.5098 44.8974L39.5098 46.6934L41.3057 46.6934L41.3057 44.8974L39.5098 44.8974Z" fill="#0D2331"/>
<path d="M39.5098 41.3056L39.5098 43.1016L41.3057 43.1016L41.3057 41.3056L39.5098 41.3056Z" fill="#0D2331"/>
<path d="M39.5098 37.7138L39.5098 39.5098L41.3057 39.5098L41.3057 37.7138L39.5098 37.7138Z" fill="#0D2331"/>
<path d="M39.5098 34.1221L39.5098 35.918L41.3057 35.918L41.3057 34.1221L39.5098 34.1221Z" fill="#0D2331"/>
<path d="M39.5098 30.5303L39.5098 32.3262L41.3057 32.3262L41.3057 30.5303L39.5098 30.5303Z" fill="#0D2331"/>
<path d="M39.5098 26.9385L39.5098 28.7344L41.3057 28.7344L41.3057 26.9385L39.5098 26.9385Z" fill="#0D2331"/>
<path d="M39.5098 23.3467L39.5098 25.1426L41.3057 25.1426L41.3057 23.3467L39.5098 23.3467Z" fill="#0D2331"/>
<path d="M39.5098 19.7549L39.5098 21.5508L41.3057 21.5508L41.3057 19.7549L39.5098 19.7549Z" fill="#0D2331"/>
<path d="M39.5098 16.1631L39.5098 17.959L41.3057 17.959L41.3057 16.1631L39.5098 16.1631Z" fill="#0D2331"/>
<path d="M39.5098 12.5713L39.5098 14.3672L41.3057 14.3672L41.3057 12.5713L39.5098 12.5713Z" fill="#0D2331"/>
<path d="M39.5098 8.97947L39.5098 10.7754L41.3057 10.7754L41.3057 8.97947L39.5098 8.97947Z" fill="#0D2331"/>
<path d="M39.5098 5.38768L39.5098 7.18359L41.3057 7.18359L41.3057 5.38768L39.5098 5.38768Z" fill="#0D2331"/>
<path d="M39.5098 1.79588L39.5098 3.5918L41.3057 3.5918L41.3057 1.79588L39.5098 1.79588Z" fill="#0D2331"/>
<path d="M41.3057 46.6943L41.3057 48.4902L43.1016 48.4902L43.1016 46.6943L41.3057 46.6943Z" fill="#0D2331"/>
<path d="M41.3057 43.1025L41.3057 44.8984L43.1016 44.8984L43.1016 43.1025L41.3057 43.1025Z" fill="#0D2331"/>
<path d="M41.3057 35.9189L41.3057 37.7148L43.1016 37.7148L43.1016 35.9189L41.3057 35.9189Z" fill="#0D2331"/>
<path d="M41.3057 32.3271L41.3057 34.123L43.1016 34.123L43.1016 32.3271L41.3057 32.3271Z" fill="#0D2331"/>
<path d="M41.3057 28.7353L41.3057 30.5312L43.1016 30.5312L43.1016 28.7353L41.3057 28.7353Z" fill="#0D2331"/>
<path d="M41.3057 21.5517L41.3057 23.3477L43.1016 23.3477L43.1016 21.5517L41.3057 21.5517Z" fill="#0D2331"/>
<path d="M41.3057 17.9599L41.3057 19.7559L43.1016 19.7559L43.1016 17.9599L41.3057 17.9599Z" fill="#0D2331"/>
<path d="M41.3057 14.3681L41.3057 16.1641L43.1016 16.1641L43.1016 14.3681L41.3057 14.3681Z" fill="#0D2331"/>
<path d="M41.3057 7.18455L41.3057 8.98047L43.1016 8.98047L43.1016 7.18455L41.3057 7.18455Z" fill="#0D2331"/>
<path d="M41.3057 3.59275L41.3057 5.38867L43.1016 5.38867L43.1016 3.59275L41.3057 3.59275Z" fill="#0D2331"/>
<path d="M41.3057 0.000956655L41.3057 1.79688L43.1016 1.79687L43.1016 0.000956576L41.3057 0.000956655Z" fill="#0D2331"/>
<path d="M43.1016 44.8974L43.1016 46.6934L44.8975 46.6934L44.8975 44.8974L43.1016 44.8974Z" fill="#0D2331"/>
<path d="M43.1016 41.3056L43.1016 43.1016L44.8975 43.1016L44.8975 41.3056L43.1016 41.3056Z" fill="#0D2331"/>
<path d="M43.1016 37.7138L43.1016 39.5098L44.8975 39.5098L44.8975 37.7138L43.1016 37.7138Z" fill="#0D2331"/>
<path d="M43.1016 34.1221L43.1016 35.918L44.8975 35.918L44.8975 34.1221L43.1016 34.1221Z" fill="#0D2331"/>
<path d="M43.1016 30.5303L43.1016 32.3262L44.8975 32.3262L44.8975 30.5303L43.1016 30.5303Z" fill="#0D2331"/>
<path d="M43.1016 26.9385L43.1016 28.7344L44.8975 28.7344L44.8975 26.9385L43.1016 26.9385Z" fill="#0D2331"/>
<path d="M43.1016 23.3467L43.1016 25.1426L44.8975 25.1426L44.8975 23.3467L43.1016 23.3467Z" fill="#0D2331"/>
<path d="M43.1016 19.7549L43.1016 21.5508L44.8975 21.5508L44.8975 19.7549L43.1016 19.7549Z" fill="#0D2331"/>
<path d="M43.1016 16.1631L43.1016 17.959L44.8975 17.959L44.8975 16.1631L43.1016 16.1631Z" fill="#0D2331"/>
<path d="M43.1016 12.5713L43.1016 14.3672L44.8975 14.3672L44.8975 12.5713L43.1016 12.5713Z" fill="#0D2331"/>
<path d="M43.1016 8.97947L43.1016 10.7754L44.8975 10.7754L44.8975 8.97947L43.1016 8.97947Z" fill="#0D2331"/>
<path d="M43.1016 5.38768L43.1016 7.18359L44.8975 7.18359L44.8975 5.38768L43.1016 5.38768Z" fill="#0D2331"/>
<path d="M43.1016 1.79588L43.1016 3.5918L44.8975 3.5918L44.8975 1.79588L43.1016 1.79588Z" fill="#0D2331"/>
<path d="M44.8984 46.6943L44.8984 48.4902L46.6944 48.4902L46.6944 46.6943L44.8984 46.6943Z" fill="#0D2331"/>
<path d="M44.8984 43.1025L44.8984 44.8984L46.6944 44.8984L46.6944 43.1025L44.8984 43.1025Z" fill="#0D2331"/>
<path d="M44.8984 39.5107L44.8984 41.3066L46.6944 41.3066L46.6944 39.5107L44.8984 39.5107Z" fill="#0D2331"/>
<path d="M44.8984 35.9189L44.8984 37.7148L46.6944 37.7148L46.6944 35.9189L44.8984 35.9189Z" fill="#0D2331"/>
<path d="M44.8984 32.3271L44.8984 34.123L46.6944 34.123L46.6944 32.3271L44.8984 32.3271Z" fill="#0D2331"/>
<path d="M44.8984 28.7353L44.8984 30.5312L46.6944 30.5312L46.6944 28.7353L44.8984 28.7353Z" fill="#0D2331"/>
<path d="M44.8984 25.1435L44.8984 26.9395L46.6944 26.9395L46.6944 25.1435L44.8984 25.1435Z" fill="#0D2331"/>
<path d="M44.8984 21.5517L44.8984 23.3477L46.6944 23.3477L46.6944 21.5517L44.8984 21.5517Z" fill="#0D2331"/>
<path d="M44.8984 17.9599L44.8984 19.7559L46.6944 19.7559L46.6944 17.9599L44.8984 17.9599Z" fill="#0D2331"/>
<path d="M44.8984 14.3681L44.8984 16.1641L46.6944 16.1641L46.6944 14.3681L44.8984 14.3681Z" fill="#0D2331"/>
<path d="M44.8984 10.7763L44.8984 12.5723L46.6944 12.5723L46.6944 10.7763L44.8984 10.7763Z" fill="#0D2331"/>
<path d="M44.8984 7.18455L44.8984 8.98047L46.6944 8.98047L46.6944 7.18455L44.8984 7.18455Z" fill="#0D2331"/>
<path d="M44.8984 3.59275L44.8984 5.38867L46.6944 5.38867L46.6944 3.59275L44.8984 3.59275Z" fill="#0D2331"/>
<path d="M44.8984 0.000956655L44.8984 1.79688L46.6944 1.79687L46.6944 0.000956576L44.8984 0.000956655Z" fill="#0D2331"/>
<path d="M46.6943 44.8974L46.6943 46.6934L48.4903 46.6934L48.4903 44.8974L46.6943 44.8974Z" fill="#0D2331"/>
<path d="M46.6943 41.3056L46.6943 43.1016L48.4903 43.1016L48.4903 41.3056L46.6943 41.3056Z" fill="#0D2331"/>
<path d="M46.6943 37.7138L46.6943 39.5098L48.4903 39.5098L48.4903 37.7138L46.6943 37.7138Z" fill="#0D2331"/>
<path d="M46.6943 34.1221L46.6943 35.918L48.4903 35.918L48.4903 34.1221L46.6943 34.1221Z" fill="#0D2331"/>
<path d="M46.6943 30.5303L46.6943 32.3262L48.4903 32.3262L48.4903 30.5303L46.6943 30.5303Z" fill="#0D2331"/>
<path d="M46.6943 26.9385L46.6943 28.7344L48.4903 28.7344L48.4903 26.9385L46.6943 26.9385Z" fill="#0D2331"/>
<path d="M46.6943 23.3467L46.6943 25.1426L48.4903 25.1426L48.4903 23.3467L46.6943 23.3467Z" fill="#0D2331"/>
<path d="M46.6943 19.7549L46.6943 21.5508L48.4903 21.5508L48.4903 19.7549L46.6943 19.7549Z" fill="#0D2331"/>
<path d="M46.6943 16.1631L46.6943 17.959L48.4903 17.959L48.4903 16.1631L46.6943 16.1631Z" fill="#0D2331"/>
<path d="M46.6943 12.5713L46.6943 14.3672L48.4903 14.3672L48.4903 12.5713L46.6943 12.5713Z" fill="#0D2331"/>
<path d="M46.6943 8.97947L46.6943 10.7754L48.4903 10.7754L48.4903 8.97947L46.6943 8.97947Z" fill="#0D2331"/>
<path d="M46.6943 5.38768L46.6943 7.18359L48.4903 7.18359L48.4903 5.38768L46.6943 5.38768Z" fill="#0D2331"/>
<path d="M46.6943 1.79588L46.6943 3.5918L48.4903 3.5918L48.4903 1.79588L46.6943 1.79588Z" fill="#0D2331"/>
<path d="M48.4902 43.1025L48.4902 44.8984L50.2862 44.8984L50.2862 43.1025L48.4902 43.1025Z" fill="#0D2331"/>
<path d="M48.4902 35.9189L48.4902 37.7148L50.2862 37.7148L50.2862 35.9189L48.4902 35.9189Z" fill="#0D2331"/>
<path d="M48.4902 28.7353L48.4902 30.5312L50.2862 30.5312L50.2862 28.7353L48.4902 28.7353Z" fill="#0D2331"/>
<path d="M48.4902 21.5517L48.4902 23.3477L50.2862 23.3477L50.2862 21.5517L48.4902 21.5517Z" fill="#0D2331"/>
<path d="M48.4902 14.3681L48.4902 16.1641L50.2862 16.1641L50.2862 14.3681L48.4902 14.3681Z" fill="#0D2331"/>
<path d="M48.4902 7.18455L48.4902 8.98047L50.2862 8.98047L50.2862 7.18455L48.4902 7.18455Z" fill="#0D2331"/>
<path d="M48.4902 0.000956655L48.4902 1.79688L50.2862 1.79687L50.2862 0.000956576L48.4902 0.000956655Z" fill="#0D2331"/>
<path d="M50.2861 44.8974L50.2861 46.6934L52.0821 46.6934L52.0821 44.8974L50.2861 44.8974Z" fill="#0D2331"/>
<path d="M50.2861 41.3056L50.2861 43.1016L52.0821 43.1016L52.0821 41.3056L50.2861 41.3056Z" fill="#0D2331"/>
<path d="M50.2861 37.7138L50.2861 39.5098L52.0821 39.5098L52.0821 37.7138L50.2861 37.7138Z" fill="#0D2331"/>
<path d="M50.2861 34.1221L50.2861 35.918L52.0821 35.918L52.0821 34.1221L50.2861 34.1221Z" fill="#0D2331"/>
<path d="M50.2861 30.5303L50.2861 32.3262L52.0821 32.3262L52.0821 30.5303L50.2861 30.5303Z" fill="#0D2331"/>
<path d="M50.2861 26.9385L50.2861 28.7344L52.0821 28.7344L52.0821 26.9385L50.2861 26.9385Z" fill="#0D2331"/>
<path d="M50.2861 23.3467L50.2861 25.1426L52.0821 25.1426L52.0821 23.3467L50.2861 23.3467Z" fill="#0D2331"/>
<path d="M50.2861 19.7549L50.2861 21.5508L52.0821 21.5508L52.0821 19.7549L50.2861 19.7549Z" fill="#0D2331"/>
<path d="M50.2861 16.1631L50.2861 17.959L52.0821 17.959L52.0821 16.1631L50.2861 16.1631Z" fill="#0D2331"/>
<path d="M50.2861 12.5713L50.2861 14.3672L52.0821 14.3672L52.0821 12.5713L50.2861 12.5713Z" fill="#0D2331"/>
<path d="M50.2861 8.97947L50.2861 10.7754L52.0821 10.7754L52.0821 8.97947L50.2861 8.97947Z" fill="#0D2331"/>
<path d="M50.2861 5.38768L50.2861 7.18359L52.0821 7.18359L52.0821 5.38768L50.2861 5.38768Z" fill="#0D2331"/>
<path d="M50.2861 1.79588L50.2861 3.5918L52.0821 3.5918L52.0821 1.79588L50.2861 1.79588Z" fill="#0D2331"/>
<path d="M52.082 46.6943L52.082 48.4902L53.8779 48.4902L53.8779 46.6943L52.082 46.6943Z" fill="#0D2331"/>
<path d="M52.082 39.5107L52.082 41.3066L53.8779 41.3066L53.8779 39.5107L52.082 39.5107Z" fill="#0D2331"/>
<path d="M52.082 32.3271L52.082 34.123L53.8779 34.123L53.8779 32.3271L52.082 32.3271Z" fill="#0D2331"/>
<path d="M52.082 25.1435L52.082 26.9395L53.8779 26.9395L53.8779 25.1435L52.082 25.1435Z" fill="#0D2331"/>
<path d="M52.082 17.9599L52.082 19.7559L53.8779 19.7559L53.8779 17.9599L52.082 17.9599Z" fill="#0D2331"/>
<path d="M52.082 10.7763L52.082 12.5723L53.8779 12.5723L53.8779 10.7763L52.082 10.7763Z" fill="#0D2331"/>
<path d="M52.082 3.59275L52.082 5.38867L53.8779 5.38867L53.8779 3.59275L52.082 3.59275Z" fill="#0D2331"/>
<path d="M53.8779 44.8974L53.8779 46.6934L55.6738 46.6934L55.6738 44.8974L53.8779 44.8974Z" fill="#0D2331"/>
<path d="M53.8779 41.3056L53.8779 43.1016L55.6738 43.1016L55.6738 41.3056L53.8779 41.3056Z" fill="#0D2331"/>
<path d="M53.8779 37.7138L53.8779 39.5098L55.6738 39.5098L55.6738 37.7138L53.8779 37.7138Z" fill="#0D2331"/>
<path d="M53.8779 34.1221L53.8779 35.918L55.6738 35.918L55.6738 34.1221L53.8779 34.1221Z" fill="#0D2331"/>
<path d="M53.8779 30.5303L53.8779 32.3262L55.6738 32.3262L55.6738 30.5303L53.8779 30.5303Z" fill="#0D2331"/>
<path d="M53.8779 26.9385L53.8779 28.7344L55.6738 28.7344L55.6738 26.9385L53.8779 26.9385Z" fill="#0D2331"/>
<path d="M53.8779 23.3467L53.8779 25.1426L55.6738 25.1426L55.6738 23.3467L53.8779 23.3467Z" fill="#0D2331"/>
<path d="M53.8779 19.7549L53.8779 21.5508L55.6738 21.5508L55.6738 19.7549L53.8779 19.7549Z" fill="#0D2331"/>
<path d="M53.8779 16.1631L53.8779 17.959L55.6738 17.959L55.6738 16.1631L53.8779 16.1631Z" fill="#0D2331"/>
<path d="M53.8779 12.5713L53.8779 14.3672L55.6738 14.3672L55.6738 12.5713L53.8779 12.5713Z" fill="#0D2331"/>
<path d="M53.8779 8.97947L53.8779 10.7754L55.6738 10.7754L55.6738 8.97947L53.8779 8.97947Z" fill="#0D2331"/>
<path d="M53.8779 5.38768L53.8779 7.18359L55.6738 7.18359L55.6738 5.38768L53.8779 5.38768Z" fill="#0D2331"/>
<path d="M53.8779 1.79588L53.8779 3.5918L55.6738 3.5918L55.6738 1.79588L53.8779 1.79588Z" fill="#0D2331"/>
<path d="M55.6738 43.1025L55.6738 44.8984L57.4697 44.8984L57.4697 43.1025L55.6738 43.1025Z" fill="#0D2331"/>
<path d="M55.6738 28.7353L55.6738 30.5312L57.4697 30.5312L57.4697 28.7353L55.6738 28.7353Z" fill="#0D2331"/>
<path d="M55.6738 14.3681L55.6738 16.1641L57.4697 16.1641L57.4697 14.3681L55.6738 14.3681Z" fill="#0D2331"/>
<path d="M55.6738 0.000956655L55.6738 1.79688L57.4697 1.79687L57.4697 0.000956576L55.6738 0.000956655Z" fill="#0D2331"/>
<path d="M57.4697 44.8974L57.4697 46.6934L59.2656 46.6934L59.2656 44.8974L57.4697 44.8974Z" fill="#0D2331"/>
<path d="M57.4697 41.3056L57.4697 43.1016L59.2656 43.1016L59.2656 41.3056L57.4697 41.3056Z" fill="#0D2331"/>
<path d="M57.4697 37.7138L57.4697 39.5098L59.2656 39.5098L59.2656 37.7138L57.4697 37.7138Z" fill="#0D2331"/>
<path d="M57.4697 34.1221L57.4697 35.918L59.2656 35.918L59.2656 34.1221L57.4697 34.1221Z" fill="#0D2331"/>
<path d="M57.4697 30.5303L57.4697 32.3262L59.2656 32.3262L59.2656 30.5303L57.4697 30.5303Z" fill="#0D2331"/>
<path d="M57.4697 26.9385L57.4697 28.7344L59.2656 28.7344L59.2656 26.9385L57.4697 26.9385Z" fill="#0D2331"/>
<path d="M57.4697 23.3467L57.4697 25.1426L59.2656 25.1426L59.2656 23.3467L57.4697 23.3467Z" fill="#0D2331"/>
<path d="M57.4697 19.7549L57.4697 21.5508L59.2656 21.5508L59.2656 19.7549L57.4697 19.7549Z" fill="#0D2331"/>
<path d="M57.4697 16.1631L57.4697 17.959L59.2656 17.959L59.2656 16.1631L57.4697 16.1631Z" fill="#0D2331"/>
<path d="M57.4697 12.5713L57.4697 14.3672L59.2656 14.3672L59.2656 12.5713L57.4697 12.5713Z" fill="#0D2331"/>
<path d="M57.4697 8.97947L57.4697 10.7754L59.2656 10.7754L59.2656 8.97947L57.4697 8.97947Z" fill="#0D2331"/>
<path d="M57.4697 5.38768L57.4697 7.18359L59.2656 7.18359L59.2656 5.38768L57.4697 5.38768Z" fill="#0D2331"/>
<path d="M57.4697 1.79588L57.4697 3.5918L59.2656 3.5918L59.2656 1.79588L57.4697 1.79588Z" fill="#0D2331"/>
<path d="M59.2656 46.6943L59.2656 48.4902L61.0615 48.4902L61.0615 46.6943L59.2656 46.6943Z" fill="#0D2331"/>
<path d="M59.2656 39.5107L59.2656 41.3066L61.0615 41.3066L61.0615 39.5107L59.2656 39.5107Z" fill="#0D2331"/>
<path d="M59.2656 32.3271L59.2656 34.123L61.0615 34.123L61.0615 32.3271L59.2656 32.3271Z" fill="#0D2331"/>
<path d="M59.2656 25.1435L59.2656 26.9395L61.0615 26.9395L61.0615 25.1435L59.2656 25.1435Z" fill="#0D2331"/>
<path d="M59.2656 17.9599L59.2656 19.7559L61.0615 19.7559L61.0615 17.9599L59.2656 17.9599Z" fill="#0D2331"/>
<path d="M59.2656 10.7763L59.2656 12.5723L61.0615 12.5723L61.0615 10.7763L59.2656 10.7763Z" fill="#0D2331"/>
<path d="M59.2656 3.59275L59.2656 5.38867L61.0615 5.38867L61.0615 3.59275L59.2656 3.59275Z" fill="#0D2331"/>
<path d="M61.0615 44.8974L61.0615 46.6934L62.8574 46.6934L62.8574 44.8974L61.0615 44.8974Z" fill="#0D2331"/>
<path d="M61.0615 41.3056L61.0615 43.1016L62.8574 43.1016L62.8574 41.3056L61.0615 41.3056Z" fill="#0D2331"/>
<path d="M61.0615 37.7138L61.0615 39.5098L62.8574 39.5098L62.8574 37.7138L61.0615 37.7138Z" fill="#0D2331"/>
<path d="M61.0615 34.1221L61.0615 35.918L62.8574 35.918L62.8574 34.1221L61.0615 34.1221Z" fill="#0D2331"/>
<path d="M61.0615 30.5303L61.0615 32.3262L62.8574 32.3262L62.8574 30.5303L61.0615 30.5303Z" fill="#0D2331"/>
<path d="M61.0615 26.9385L61.0615 28.7344L62.8574 28.7344L62.8574 26.9385L61.0615 26.9385Z" fill="#0D2331"/>
<path d="M61.0615 23.3467L61.0615 25.1426L62.8574 25.1426L62.8574 23.3467L61.0615 23.3467Z" fill="#0D2331"/>
<path d="M61.0615 19.7549L61.0615 21.5508L62.8574 21.5508L62.8574 19.7549L61.0615 19.7549Z" fill="#0D2331"/>
<path d="M61.0615 16.1631L61.0615 17.959L62.8574 17.959L62.8574 16.1631L61.0615 16.1631Z" fill="#0D2331"/>
<path d="M61.0615 12.5713L61.0615 14.3672L62.8574 14.3672L62.8574 12.5713L61.0615 12.5713Z" fill="#0D2331"/>
<path d="M61.0615 8.97947L61.0615 10.7754L62.8574 10.7754L62.8574 8.97947L61.0615 8.97947Z" fill="#0D2331"/>
<path d="M61.0615 5.38768L61.0615 7.18359L62.8574 7.18359L62.8574 5.38768L61.0615 5.38768Z" fill="#0D2331"/>
<path d="M61.0615 1.79588L61.0615 3.5918L62.8574 3.5918L62.8574 1.79588L61.0615 1.79588Z" fill="#0D2331"/>
<path d="M64.6533 44.8974L64.6533 46.6934L66.4492 46.6934L66.4492 44.8974L64.6533 44.8974Z" fill="#0D2331"/>
<path d="M64.6533 41.3056L64.6533 43.1016L66.4492 43.1016L66.4492 41.3056L64.6533 41.3056Z" fill="#0D2331"/>
<path d="M64.6533 37.7138L64.6533 39.5098L66.4492 39.5098L66.4492 37.7138L64.6533 37.7138Z" fill="#0D2331"/>
<path d="M64.6533 34.1221L64.6533 35.918L66.4492 35.918L66.4492 34.1221L64.6533 34.1221Z" fill="#0D2331"/>
<path d="M64.6533 30.5303L64.6533 32.3262L66.4492 32.3262L66.4492 30.5303L64.6533 30.5303Z" fill="#0D2331"/>
<path d="M64.6533 26.9385L64.6533 28.7344L66.4492 28.7344L66.4492 26.9385L64.6533 26.9385Z" fill="#0D2331"/>
<path d="M64.6533 23.3467L64.6533 25.1426L66.4492 25.1426L66.4492 23.3467L64.6533 23.3467Z" fill="#0D2331"/>
<path d="M64.6533 19.7549L64.6533 21.5508L66.4492 21.5508L66.4492 19.7549L64.6533 19.7549Z" fill="#0D2331"/>
<path d="M64.6533 16.1631L64.6533 17.959L66.4492 17.959L66.4492 16.1631L64.6533 16.1631Z" fill="#0D2331"/>
<path d="M64.6533 12.5713L64.6533 14.3672L66.4492 14.3672L66.4492 12.5713L64.6533 12.5713Z" fill="#0D2331"/>
<path d="M64.6533 8.97947L64.6533 10.7754L66.4492 10.7754L66.4492 8.97947L64.6533 8.97947Z" fill="#0D2331"/>
<path d="M64.6533 5.38768L64.6533 7.18359L66.4492 7.18359L66.4492 5.38768L64.6533 5.38768Z" fill="#0D2331"/>
<path d="M64.6533 1.79588L64.6533 3.5918L66.4492 3.5918L66.4492 1.79588L64.6533 1.79588Z" fill="#0D2331"/>
<path d="M68.2451 44.8974L68.2451 46.6934L70.041 46.6934L70.041 44.8974L68.2451 44.8974Z" fill="#0D2331"/>
<path d="M68.2451 41.3056L68.2451 43.1016L70.041 43.1016L70.041 41.3056L68.2451 41.3056Z" fill="#0D2331"/>
<path d="M68.2451 37.7138L68.2451 39.5098L70.041 39.5098L70.041 37.7138L68.2451 37.7138Z" fill="#0D2331"/>
<path d="M68.2451 34.1221L68.2451 35.918L70.041 35.918L70.041 34.1221L68.2451 34.1221Z" fill="#0D2331"/>
<path d="M68.2451 30.5303L68.2451 32.3262L70.041 32.3262L70.041 30.5303L68.2451 30.5303Z" fill="#0D2331"/>
<path d="M68.2451 26.9385L68.2451 28.7344L70.041 28.7344L70.041 26.9385L68.2451 26.9385Z" fill="#0D2331"/>
<path d="M68.2451 23.3467L68.2451 25.1426L70.041 25.1426L70.041 23.3467L68.2451 23.3467Z" fill="#0D2331"/>
<path d="M68.2451 19.7549L68.2451 21.5508L70.041 21.5508L70.041 19.7549L68.2451 19.7549Z" fill="#0D2331"/>
<path d="M68.2451 16.1631L68.2451 17.959L70.041 17.959L70.041 16.1631L68.2451 16.1631Z" fill="#0D2331"/>
<path d="M68.2451 12.5713L68.2451 14.3672L70.041 14.3672L70.041 12.5713L68.2451 12.5713Z" fill="#0D2331"/>
<path d="M68.2451 8.97947L68.2451 10.7754L70.041 10.7754L70.041 8.97947L68.2451 8.97947Z" fill="#0D2331"/>
<path d="M68.2451 5.38768L68.2451 7.18359L70.041 7.18359L70.041 5.38768L68.2451 5.38768Z" fill="#0D2331"/>
<path d="M68.2451 1.79588L68.2451 3.5918L70.041 3.5918L70.041 1.79588L68.2451 1.79588Z" fill="#0D2331"/>
<path d="M71.8369 44.8974L71.8369 46.6934L73.6328 46.6934L73.6328 44.8974L71.8369 44.8974Z" fill="#0D2331"/>
<path d="M71.8369 37.7138L71.8369 39.5098L73.6328 39.5098L73.6328 37.7138L71.8369 37.7138Z" fill="#0D2331"/>
<path d="M71.8369 30.5303L71.8369 32.3262L73.6328 32.3262L73.6328 30.5303L71.8369 30.5303Z" fill="#0D2331"/>
<path d="M71.8369 23.3467L71.8369 25.1426L73.6328 25.1426L73.6328 23.3467L71.8369 23.3467Z" fill="#0D2331"/>
<path d="M71.8369 16.1631L71.8369 17.959L73.6328 17.959L73.6328 16.1631L71.8369 16.1631Z" fill="#0D2331"/>
<path d="M71.8369 8.97947L71.8369 10.7754L73.6328 10.7754L73.6328 8.97947L71.8369 8.97947Z" fill="#0D2331"/>
<path d="M71.8369 1.79588L71.8369 3.5918L73.6328 3.5918L73.6328 1.79588L71.8369 1.79588Z" fill="#0D2331"/>
<path d="M75.4287 44.8974L75.4287 46.6934L77.2246 46.6934L77.2246 44.8974L75.4287 44.8974Z" fill="#0D2331"/>
<path d="M75.4287 41.3056L75.4287 43.1016L77.2246 43.1016L77.2246 41.3056L75.4287 41.3056Z" fill="#0D2331"/>
<path d="M75.4287 34.1221L75.4287 35.918L77.2246 35.918L77.2246 34.1221L75.4287 34.1221Z" fill="#0D2331"/>
<path d="M75.4287 30.5303L75.4287 32.3262L77.2246 32.3262L77.2246 30.5303L75.4287 30.5303Z" fill="#0D2331"/>
<path d="M75.4287 26.9385L75.4287 28.7344L77.2246 28.7344L77.2246 26.9385L75.4287 26.9385Z" fill="#0D2331"/>
<path d="M75.4287 19.7549L75.4287 21.5508L77.2246 21.5508L77.2246 19.7549L75.4287 19.7549Z" fill="#0D2331"/>
<path d="M75.4287 16.1631L75.4287 17.959L77.2246 17.959L77.2246 16.1631L75.4287 16.1631Z" fill="#0D2331"/>
<path d="M75.4287 12.5713L75.4287 14.3672L77.2246 14.3672L77.2246 12.5713L75.4287 12.5713Z" fill="#0D2331"/>
<path d="M75.4287 5.38768L75.4287 7.18359L77.2246 7.18359L77.2246 5.38768L75.4287 5.38768Z" fill="#0D2331"/>
<path d="M75.4287 1.79588L75.4287 3.5918L77.2246 3.5918L77.2246 1.79588L75.4287 1.79588Z" fill="#0D2331"/>
<path d="M79.0205 44.8974L79.0205 46.6934L80.8164 46.6934L80.8164 44.8974L79.0205 44.8974Z" fill="#0D2331"/>
<path d="M79.0205 37.7138L79.0205 39.5098L80.8164 39.5098L80.8164 37.7138L79.0205 37.7138Z" fill="#0D2331"/>
<path d="M79.0205 30.5303L79.0205 32.3262L80.8164 32.3262L80.8164 30.5303L79.0205 30.5303Z" fill="#0D2331"/>
<path d="M79.0205 23.3467L79.0205 25.1426L80.8164 25.1426L80.8164 23.3467L79.0205 23.3467Z" fill="#0D2331"/>
<path d="M79.0205 16.1631L79.0205 17.959L80.8164 17.959L80.8164 16.1631L79.0205 16.1631Z" fill="#0D2331"/>
<path d="M79.0205 8.97947L79.0205 10.7754L80.8164 10.7754L80.8164 8.97947L79.0205 8.97947Z" fill="#0D2331"/>
<path d="M79.0205 1.79588L79.0205 3.5918L80.8164 3.5918L80.8164 1.79588L79.0205 1.79588Z" fill="#0D2331"/>
<path d="M82.6123 41.3056L82.6123 43.1016L84.4082 43.1016L84.4082 41.3056L82.6123 41.3056Z" fill="#0D2331"/>
<path d="M82.6123 34.1221L82.6123 35.918L84.4082 35.918L84.4082 34.1221L82.6123 34.1221Z" fill="#0D2331"/>
<path d="M82.6123 26.9385L82.6123 28.7344L84.4082 28.7344L84.4082 26.9385L82.6123 26.9385Z" fill="#0D2331"/>
<path d="M82.6123 19.7549L82.6123 21.5508L84.4082 21.5508L84.4082 19.7549L82.6123 19.7549Z" fill="#0D2331"/>
<path d="M82.6123 12.5713L82.6123 14.3672L84.4082 14.3672L84.4082 12.5713L82.6123 12.5713Z" fill="#0D2331"/>
<path d="M82.6123 5.38768L82.6123 7.18359L84.4082 7.18359L84.4082 5.38768L82.6123 5.38768Z" fill="#0D2331"/>
</svg>
